PathFileType	4	(X/Y/Z)	C:/Users/beibeiliu/ov580/test_trc/capture2\sequence.11_training_dense_left.trc
DataRate	CameraRate	NumFrames	NumMarkers	Units	OrigDataRate	OrigDataStartFrame	OrigNumFrames
120	120	17	19	mm	120	176	350
Frame#	Time	ThumbCMC			ThumbMCP			ThumbIP			ThumbTip			IndexMCP			IndexPIP			IndexTip			MiddleMCP			MiddlePIP			MiddleTip			RingMCP			RingPIP			RingTip			PinkyMCP			PinkyPIP			PinkyTip			BackHand1			BackHand2			BackHand3	
		X0	Y0	Z0	X1	Y1	Z1	X2	Y2	Z2	X3	Y3	Z3	X4	Y4	Z4	X5	Y5	Z5	X6	Y6	Z6	X7	Y7	Z7	X8	Y8	Z8	X9	Y9	Z9	X10	Y10	Z10	X11	Y11	Z11	X12	Y12	Z12	X13	Y13	Z13	X14	Y14	Z14	X15	Y15	Z15	X16	Y16	Z16	X17	Y17	Z17	X18	Y18	Z18	
175	1.45833	-196.043	14.2068	-45.4935	-197.348	38.7031	-64.6491	-197.832	53.4583	-84.6037	-203.307	68.2956	-100.272	-163.895	9.59396	-114.435	-158.792	22.6088	-135.537	-144.493	35.8326	-156.438	-139.084	-6.7063	-113.834	-125.026	1.48242	-133.38	-106.585	17.7192	-156.488	-120.564	-10.9047	-101.01	-105.375	-0.733015	-120.915	-89.5345	9.71317	-135.75	-101.624	-14.0723	-78.171	-86.8838	-4.95879	-88.0966	-65.7557	-2.30727	-101.554	-150.609	-28.322	-56.7198	-161.914	-32.5731	-34.0941	-182.915	-17.6771	-55.5284	
176	1.46667	-194.929	15.1276	-47.1286	-197.734	38.8747	-60.6411	-200.432	54.7611	-79.0175	-204.296	68.6378	-94.8476	-161.322	13.7939	-110.835	-149.961	29.9658	-133.367	-140.155	43.2614	-148.999	-135.745	-0.701008	-110.419	-123.764	10.8171	-129.678	-104.819	29.107	-151.808	-116.489	-5.10942	-96.3301	-99.1762	4.30981	-113.118	-83.9469	22.8989	-132.169	-102.09	-6.70429	-76.4375	-80.0805	3.40837	-82.7638	-61.3363	8.12375	-93.6698	-145.209	-27.0687	-55.5531	-157.623	-33.274	-32.0365	-179.897	-17.1243	-57.5725	
177	1.475	-198.079	14.1338	-44.8186	-198.608	38.798	-58.0188	-201.447	53.6248	-74.6121	-203.364	69.7177	-94.171	-161.099	19.1089	-111.92	-149.627	33.968	-129.324	-137.592	53.8661	-145.662	-134.47	3.45373	-105.276	-117.16	18.0371	-128.41	-100.879	35.4685	-143.06	-116.043	0.70165	-96.1168	-97.3166	10.9588	-108.46	-80.4414	31.0993	-126.107	-99.5953	-4.18592	-67.2542	-80.071	8.11501	-75.9721	-57.6505	17.3345	-87.3159	-140.801	-25.0233	-57.5088	-154.217	-33.8117	-27.6096	-176.546	-19.0917	-53.9857	
178	1.48333	-196.604	14.4613	-42.6992	-193.261	36.9882	-55.6462	-202.382	56.9409	-74.4054	-205.167	71.5288	-87.4919	-159.203	21.6545	-104.903	-145.931	37.427	-124.851	-135.129	60.1051	-141.514	-132.593	9.82084	-107.218	-116.071	25.2927	-124.737	-99.2452	43.7555	-138.697	-113.908	4.2574	-90.8369	-91.0924	17.4784	-103.994	-79.5627	37.2432	-119.23	-94.107	0.887023	-65.0757	-81.1386	13.3607	-71.6894	-58.9043	24.4189	-82.1934	-137.095	-22.9066	-53.0886	-154.563	-32.1472	-31.1467	-176.146	-17.2631	-53.5251	
179	1.49167	-196.057	12.342	-37.9277	-197.511	35.28	-48.4602	-199.299	55.6652	-69.1442	-201.433	70.1059	-81.8429	-154.179	25.152	-104.448	-148.64	40.6445	-119.288	-130.505	58.6915	-131.971	-131.204	12.167	-99.7075	-115.308	26.7906	-116.257	-96.1089	47.0617	-129.887	-107.879	6.08001	-82.3927	-92.6956	21.1497	-97.1484	-75.7575	42.9664	-110.35	-91.9091	3.97348	-59.6377	-76.8825	18.18	-66.7797	-56.7758	28.9845	-72.3334	-137.061	-22.6784	-48.034	-154.422	-31.4361	-25.3888	-173.206	-17.8695	-48.7333	
180	1.5	-194.073	10.2503	-37.6216	-198.59	33.8474	-46.1272	-202.065	56.968	-68.4685	-200.803	73.2038	-82.2991	-151.21	22.9417	-96.9542	-141.458	44.665	-115.615	-132.116	65.2535	-128.175	-127.599	16.5327	-98.4487	-111.577	33.1354	-114.111	-94.6073	53.5971	-125.508	-103.955	9.64304	-81.7867	-92.836	24.0535	-92.4413	-73.9556	46.9519	-102.647	-93.1473	6.8637	-58.119	-77.014	19.3364	-60.4349	-56.4396	31.2597	-64.9407	-138.422	-21.1779	-50.2508	-149.226	-34.8319	-28.1565	-168.86	-17.7648	-46.5051	
181	1.50833	-191.352	9.30336	-36.5932	-199.538	36.1661	-48.0374	-203.22	54.5605	-62.8652	-202.7	72.6567	-78.1543	-150.55	27.5631	-98.3338	-141.488	44.7991	-110.178	-130.617	70.9454	-123.893	-124.362	16.4091	-92.6556	-112.368	33.9239	-107.736	-90.3579	58.0418	-119.562	-104.407	9.80347	-73.69	-86.6451	29.9635	-88.3659	-73.4519	49.0585	-95.101	-91.9611	5.18181	-48.5633	-75.622	23.2443	-57.1826	-53.4472	34.8332	-58.8169	-136.32	-21.3572	-47.3708	-149.316	-35.0427	-21.9804	-165.205	-17.5889	-49.0465	
182	1.51667	-192.283	5.23406	-32.4142	-199.845	33.0783	-45.0587	-203.737	54.5713	-61.7143	-204.839	70.0259	-72.8891	-150.384	25.2149	-93.2285	-141.751	45.0628	-107.722	-128.535	70.0772	-120.026	-123.715	16.9717	-90.3605	-105.656	37.2923	-105.419	-91.0907	56.2359	-112.813	-104.773	14.4462	-75.5483	-86.1498	30.9891	-83.3367	-68.269	53.7621	-90.2165	-89.8328	7.15321	-48.0671	-73.8779	19.7957	-46.9993	-52.861	37.0464	-52.2265	-132.977	-22.1449	-42.7201	-149.842	-36.8106	-20.8502	-166.713	-19.4164	-45.2672	
183	1.525	-191.371	2.34688	-33.2279	-201.809	29.6419	-43.4208	-205.783	49.8838	-59.4669	-201.073	68.3857	-72.8623	-146.809	24.1996	-92.2721	-141.411	48.6978	-108.475	-130.599	67.7108	-116.952	-121.602	13.842	-84.9055	-104.782	36.3995	-102.277	-89.2042	58.8609	-111.081	-103.517	11.1766	-69.9911	-83.1085	29.2278	-78.627	-71.0869	50.8891	-86.083	-90.8908	4.20612	-43.633	-75.0792	21.71	-47.9334	-54.858	31.7727	-51.3963	-136.694	-24.1825	-40.9465	-146.663	-40.2125	-19.2639	-166.865	-22.9983	-42.5537	
184	1.53333	-192.292	4.05815	-35.1649	-200.707	29.3661	-42.0162	-202.223	49.5351	-57.4241	-203.594	65.384	-69.0417	-147.525	23.3938	-89.7959	-140.965	44.4742	-103.646	-126.491	65.3102	-113.791	-118.494	16.232	-86.4085	-108.701	33.5489	-100.376	-91.3879	56.7673	-110.047	-100.099	10.9666	-69.9737	-85.7957	28.3354	-78.3153	-68.4841	51.7333	-85.4559	-89.356	5.04945	-44.2808	-74.378	20.4825	-47.6078	-53.5798	31.8461	-46.4466	-133.982	-25.3311	-41.3572	-149.293	-38.1165	-18.0914	-166.261	-21.9465	-44.7143	
185	1.54167	-192.897	2.6059	-33.0749	-199.364	28.2713	-42.8286	-202.666	49.1347	-59.8285	-201.405	66.0076	-71.825	-147.765	23.47	-91.9129	-139.66	42.5081	-103.895	-126.39	64.0226	-112.908	-123.636	13.4162	-88.387	-106.648	31.236	-99.0579	-90.6237	54.738	-108.543	-104.877	7.6246	-68.2709	-88.8083	24.5174	-79.4647	-71.8614	49.0941	-85.4853	-94.4199	2.22127	-45.4879	-72.7783	19.2052	-45.6387	-55.6641	30.6625	-48.8992	-135.101	-26.8094	-41.8814	-149.624	-37.9333	-21.4265	-167.664	-22.699	-45.0109	
186	1.55	-195.736	0.570565	-33.6771	-200.212	26.9739	-42.6356	-206.169	47.5994	-57.714	-204.744	62.948	-69.1752	-149.234	18.9487	-88.9149	-139.213	43.7274	-106.958	-128.352	61.5575	-113.916	-122.762	8.56209	-84.2529	-107.622	30.5272	-102.292	-91.4469	52.5662	-110.705	-103.924	7.90711	-72.7026	-84.8087	23.6718	-80.0308	-68.5155	47.9441	-86.6054	-88.9548	1.2703	-43.7899	-75.9747	15.6397	-48.5779	-54.4255	30.4983	-54.4368	-131.818	-29.7758	-37.6702	-148.301	-42.0594	-20.7181	-170.139	-25.7294	-42.2843	
187	1.55833	-190.846	-1.76869	-31.9267	-197.75	23.4995	-41.4133	-205.293	45.6311	-58.4722	-206.796	61.3105	-72.3783	-148.7	18.0068	-93.0432	-143.627	36.6107	-107.322	-128.603	62.8829	-117.394	-125.217	9.0954	-90.6237	-107.442	26.1308	-103.241	-93.693	49.4896	-112.056	-105.508	5.57601	-75.5316	-88.7788	22.3082	-84.2382	-72.9726	42.6718	-89.6537	-88.9631	-0.342075	-46.0113	-73.0439	13.8602	-48.9153	-53.8652	28.3378	-54.2752	-134.415	-26.7611	-43.4736	-145.278	-41.6021	-18.8078	-164.22	-27.6888	-43.8935	
188	1.56667	-191.775	-1.85218	-33.7861	-199.135	24.35	-44.6552	-204.843	43.9466	-61.8441	-204.516	60.8735	-76.2371	-151.207	14.3237	-95.1585	-145.212	34.0802	-110.825	-129.127	58.2814	-120.486	-124.114	3.1	-88.6737	-110.842	23.1962	-107.354	-94.4846	51.2071	-119.591	-103.549	1.68768	-76.0281	-86.0806	19.4309	-87.1648	-73.6018	44.0463	-95.822	-88.841	-0.291625	-52.3181	-73.8171	11.3298	-52.0361	-53.9122	25.2751	-56.2369	-129.397	-31.5225	-44.5255	-147.288	-44.0712	-17.7375	-164.311	-28.7778	-46.2313	
189	1.575	-191.18	-2.20047	-34.9786	-194.064	22.2783	-46.0571	-205.709	41.5616	-61.486	-208.645	58.6272	-78.6237	-156.232	9.32018	-96.3808	-147.656	30.4223	-115.547	-135.533	52.1243	-126.005	-127.864	-0.110944	-94.0053	-111.498	17.0746	-111.382	-95.0752	43.2689	-123.646	-107.96	-0.864418	-83.2244	-86.3511	16.5601	-93.9412	-75.4348	40.4562	-104.309	-89.1533	-3.83496	-56.3292	-76.8786	10.1917	-60.8075	-54.6544	24.0434	-67.6005	-136.068	-34.3263	-44.1679	-147.09	-46.1687	-18.9572	-168.189	-28.8289	-44.6577	
190	1.58333	-194.813	-4.7782	-35.6907	-199.4	20.6703	-48.982	-206.886	38.3029	-66.3749	-210.925	52.0721	-81.1932	-158.034	2.50782	-97.9402	-148.116	20.5815	-117.199	-138.058	45.2305	-132.144	-130.674	-6.25566	-98.1931	-117.27	11.9186	-119.383	-100.13	33.1361	-130.478	-108.368	-9.0177	-81.6806	-94.3966	8.06629	-99.7846	-77.6512	30.7829	-110.238	-96.2064	-10.0873	-59.1033	-77.832	5.03051	-67.9353	-55.696	17.4342	-78.0162	-131.842	-35.3045	-47.2344	-144.151	-46.047	-21.836	-171.654	-33.7252	-42.7259	
191	1.59167	-192.368	-8.98281	-37.5666	-201.123	13.5381	-47.6246	-207.777	30.1307	-65.9268	-209.167	44.9882	-85.4866	-161.976	-5.31378	-102.746	-155.703	11.5514	-125.184	-142.966	31.3821	-138.59	-135.377	-15.5844	-101.86	-120.624	-2.25672	-122.132	-106.083	22.571	-140.44	-115.957	-15.7883	-92.2858	-96.8529	-1.08242	-106.888	-83.7057	20.1532	-119.64	-99.0863	-15.238	-67.8086	-81.0107	-4.44711	-75.0064	-61.2866	10.0819	-88.8478	-135.184	-42.0091	-48.7694	-145.658	-49.4747	-23.2146	-169.066	-38.7742	-41.7417	
